
<svg width="139" height="48" viewBox="0 0 139 48" fill="none" xmlns="http://www.w3.org/2000/svg">
<mask id="mask0_1837_2363" style="mask-type:alpha" maskUnits="userSpaceOnUse" x="0" y="0" width="139" height="48">
<rect width="139" height="48" rx="16" fill="#1E2534"/>
</mask>
<g mask="url(#mask0_1837_2363)">
<rect x="0.5" y="0.5" width="138" height="47" rx="15.5" stroke="#302A25"/>
<path d="M48.8253 14.2227L48.2948 12.561C48.1647 12.1506 48.0546 11.6927 47.9545 11.3023H47.9345C47.8369 11.6927 47.7343 12.1606 47.6166 12.561L47.0961 14.2227H48.8253ZM46.8959 15.1511L46.3153 17.063H45.0441L47.2062 10.3213H48.7753L50.965 17.063H49.6462L49.0356 15.1511" fill="#302A25"/>
<path d="M52.8042 12.1934L53.595 14.6608C53.7352 15.0913 53.8328 15.4816 53.9229 15.882H53.9529C54.043 15.4816 54.1531 15.1013 54.2832 14.6608L55.064 12.1934H56.3528L54.4934 17.0632H53.2847L51.4729 12.1934" fill="#302A25"/>
<path d="M60.0641 14.6806C59.1932 14.6706 58.3624 14.8508 58.3624 15.5915C58.3624 16.072 58.6727 16.2922 59.0631 16.2922C59.5611 16.2922 59.9139 15.9719 60.0316 15.6215C60.0641 15.5315 60.0641 15.4414 60.0641 15.3513V14.6806ZM61.2628 15.8918C61.2628 16.3323 61.2828 16.7627 61.3429 17.0605H60.2318L60.1442 16.5224H60.1116C59.8239 16.9003 59.3133 17.1706 58.6727 17.1706C57.6917 17.1706 57.1437 16.4624 57.1437 15.7216C57.1437 14.5004 58.2323 13.8723 60.0316 13.8823V13.8022C60.0316 13.4819 59.9039 12.9514 59.0431 12.9514C58.5626 12.9514 58.0621 13.1015 57.7318 13.3117L57.4915 12.5109C57.8519 12.2907 58.4825 12.083 59.2533 12.083C60.8123 12.083 61.2628 13.0715 61.2628 14.1426" fill="#302A25"/>
<path d="M63.002 12.1932H64.2307V17.063H63.002V12.1932ZM63.6101 11.4925C63.2022 11.4925 62.9319 11.1922 62.9319 10.8318C62.9319 10.4514 63.2097 10.1611 63.6226 10.1611C64.0405 10.1611 64.3008 10.4514 64.3108 10.8318C64.3108 11.1922 64.0405 11.4925 63.6226 11.4925" fill="#302A25"/>
<path d="M66 17.0633H67.2312V9.95117H66V17.0633Z" fill="#302A25"/>
<path d="M71.5906 14.6806C70.7197 14.6706 69.8889 14.8508 69.8889 15.5915C69.8889 16.072 70.1992 16.2922 70.5896 16.2922C71.0901 16.2922 71.4404 15.9719 71.5606 15.6215C71.5906 15.5315 71.5906 15.4414 71.5906 15.3513V14.6806ZM72.7893 15.8918C72.7893 16.3323 72.8093 16.7627 72.8694 17.0605H71.7608L71.6707 16.5224H71.6406C71.3503 16.9003 70.8398 17.1706 70.1992 17.1706C69.2207 17.1706 68.6702 16.4624 68.6702 15.7216C68.6702 14.5004 69.7613 13.8723 71.5606 13.8823V13.8022C71.5606 13.4819 71.4304 12.9514 70.5696 12.9514C70.0891 12.9514 69.5886 13.1015 69.2608 13.3117L69.0205 12.5109C69.3809 12.2907 70.009 12.083 70.7798 12.083C72.3388 12.083 72.7893 13.0715 72.7893 14.1426" fill="#302A25"/>
<path d="M75.7598 15.0513C75.7598 15.1514 75.7698 15.2515 75.7898 15.3416C75.92 15.8421 76.3504 16.2024 76.8784 16.2024C77.6492 16.2024 78.1197 15.5918 78.1197 14.6033C78.1197 13.7425 77.7092 13.0418 76.8884 13.0418C76.3879 13.0418 75.93 13.4021 75.7998 13.9427C75.7798 14.0328 75.7598 14.1429 75.7598 14.263V15.0513ZM74.5286 9.95117H75.7598V12.8616H75.7798C76.0801 12.3911 76.6081 12.0833 77.3389 12.0833C78.5301 12.0833 79.3784 13.0718 79.3684 14.5533C79.3684 16.3025 78.2598 17.1734 77.1587 17.1734C76.5281 17.1734 75.97 16.9332 75.6197 16.3326H75.5996L75.5396 17.0633H74.4885C74.5085 16.733 74.5286 16.1924 74.5286 15.7019" fill="#302A25"/>
<path d="M80.8174 17.0633H82.0461V9.95117H80.8174V17.0633Z" fill="#302A25"/>
<path d="M86.8358 14.1125C86.8458 13.6621 86.6456 12.9213 85.8273 12.9213C85.0666 12.9213 84.7462 13.612 84.6962 14.1125H86.8358ZM84.6962 14.9709C84.7262 15.8518 85.4169 16.2322 86.1977 16.2322C86.7658 16.2322 87.1662 16.1421 87.5465 16.0119L87.7267 16.8503C87.3063 17.033 86.7257 17.1606 86.0275 17.1606C84.4459 17.1606 83.515 16.1921 83.515 14.7031C83.515 13.3518 84.3358 12.083 85.8974 12.083C87.4765 12.083 87.997 13.3818 87.997 14.4529C87.997 14.6831 87.977 14.8633 87.957 14.9709" fill="#302A25"/>
<path d="M94.1056 16.2822C94.8038 16.2822 95.2943 15.6015 95.2943 14.613C95.2943 13.8523 94.9539 12.9714 94.1156 12.9714C93.2447 12.9714 92.8944 13.8222 92.8944 14.6331C92.8944 15.5715 93.3648 16.2822 94.0931 16.2822H94.1056ZM94.0656 17.1731C92.6942 17.1731 91.6256 16.2322 91.6256 14.6631C91.6256 13.0615 92.6742 12.083 94.1456 12.083C95.5946 12.083 96.5656 13.1015 96.5656 14.583C96.5656 16.3723 95.3043 17.1731 94.0756 17.1731" fill="#302A25"/>
<path d="M98.012 13.6421C98.012 13.0815 97.9945 12.611 97.9745 12.1906H99.0431L99.1031 12.9213H99.1331C99.3534 12.541 99.8839 12.083 100.695 12.083C101.543 12.083 102.424 12.6311 102.424 14.1726V17.0605H101.193V14.3127C101.193 13.612 100.932 13.0815 100.264 13.0815C99.7738 13.0815 99.4334 13.4319 99.3033 13.8022C99.2633 13.9023 99.2433 14.0525 99.2433 14.1926V17.0605H98.012" fill="#302A25"/>
<path d="M108.092 10.9414V12.1902H109.261V13.1111H108.092V15.2507C108.092 15.8513 108.252 16.1516 108.72 16.1516C108.94 16.1516 109.061 16.1416 109.201 16.1016L109.221 17.03C109.041 17.1026 108.71 17.1601 108.33 17.1601C107.872 17.1601 107.501 17.01 107.271 16.7622C107.001 16.4819 106.881 16.0315 106.881 15.3909V13.1111H106.19V12.1902H106.881V11.2817" fill="#302A25"/>
<path d="M110.63 9.95117H111.861V12.8516H111.881C112.031 12.6213 112.241 12.4312 112.492 12.301C112.742 12.1634 113.03 12.0833 113.34 12.0833C114.171 12.0833 115.039 12.6314 115.039 14.1929V17.0633H113.81V14.323C113.81 13.6223 113.55 13.0818 112.869 13.0818C112.391 13.0818 112.051 13.4021 111.911 13.7725C111.871 13.8826 111.861 14.0127 111.861 14.1429V17.0633H110.63" fill="#302A25"/>
<path d="M119.799 14.1125C119.809 13.6621 119.609 12.9213 118.788 12.9213C118.027 12.9213 117.709 13.612 117.659 14.1125H119.799ZM117.659 14.9709C117.689 15.8518 118.377 16.2322 119.158 16.2322C119.729 16.2322 120.129 16.1421 120.507 16.0119L120.69 16.8503C120.269 17.033 119.689 17.1606 118.988 17.1606C117.409 17.1606 116.478 16.1921 116.478 14.7031C116.478 13.3518 117.299 12.083 118.858 12.083C120.437 12.083 120.958 13.3818 120.958 14.4529C120.958 14.6831 120.937 14.8633 120.917 14.9709" fill="#302A25"/>
<path d="M31.5956 23.6C31.5631 20.2641 34.3258 18.64 34.4535 18.5649C32.8894 16.2826 30.4645 15.9723 29.6111 15.9473C27.5766 15.7346 25.6021 17.1685 24.5661 17.1685C23.5075 17.1685 21.9084 15.9698 20.1892 16.0049C17.972 16.0399 15.8999 17.3237 14.7638 19.3132C12.4214 23.3747 14.1682 29.3407 16.4154 32.624C17.5415 34.2306 18.8529 36.0274 20.5721 35.9623C22.2538 35.8923 22.8819 34.8912 24.9114 34.8912C26.9234 34.8912 27.514 35.9623 29.2683 35.9223C31.0726 35.8923 32.2087 34.3082 33.2923 32.684C34.5936 30.8422 35.1141 29.0279 35.1341 28.9353C35.0916 28.9203 31.6306 27.599 31.5956 23.6Z" fill="#302A25"/>
<path d="M28.2823 13.7899C29.1857 12.6588 29.8088 11.1172 29.6336 9.55566C28.3248 9.61572 26.6882 10.4616 25.7447 11.5677C24.9114 12.5437 24.1631 14.1428 24.3583 15.6443C25.8298 15.7544 27.3388 14.9035 28.2823 13.7899Z" fill="#302A25"/>
<path d="M51.8909 29.9684L50.7297 26.3823C50.6071 26.0169 50.3769 25.1536 50.0365 23.7972H49.9965C49.8613 24.3803 49.6411 25.2437 49.3433 26.3823L48.2022 29.9684H51.8909ZM55.9049 35.6966H53.56L52.2763 31.6626H47.8168L46.5931 35.6966H44.3108L48.7352 21.9629H51.4629" fill="#302A25"/>
<path d="M65.0341 30.704C65.0341 29.738 64.8163 28.9447 64.3809 28.3191C63.9054 27.6684 63.2673 27.3406 62.4665 27.3406C61.9234 27.3406 61.4279 27.5233 60.99 27.8812C60.5496 28.244 60.2593 28.7145 60.1216 29.3001C60.0541 29.5703 60.0215 29.7931 60.0215 29.9682V31.6199C60.0215 32.3406 60.2418 32.9487 60.6822 33.4442C61.1251 33.9422 61.6982 34.1875 62.4039 34.1875C63.2348 34.1875 63.8804 33.8696 64.3384 33.229C64.8038 32.5909 65.0341 31.75 65.0341 30.704ZM67.2763 30.6214C67.2763 32.3056 66.8208 33.6394 65.9099 34.6154C65.0941 35.4863 64.0806 35.9192 62.8744 35.9192C61.5681 35.9192 60.6322 35.4487 60.0616 34.5128H60.0215V39.7305H57.8193V29.0523C57.8193 27.9938 57.7943 26.9077 57.7393 25.7916H59.6737L59.7963 27.3631H59.8389C60.5721 26.1795 61.6857 25.5889 63.1797 25.5889C64.3459 25.5889 65.3243 26.0518 66.1026 26.9753C66.8834 27.9012 67.2763 29.1149 67.2763 30.6214Z" fill="#302A25"/>
<path d="M76.4229 30.704C76.4229 29.738 76.2052 28.9447 75.7698 28.3191C75.2943 27.6684 74.6561 27.3406 73.8553 27.3406C73.3123 27.3406 72.8193 27.5233 72.3789 27.8812C71.9359 28.244 71.6506 28.7145 71.5155 29.3001C71.4454 29.5703 71.4129 29.7931 71.4129 29.9682V31.6199C71.4129 32.3406 71.6306 32.9487 72.0711 33.4442C72.514 33.9422 73.0871 34.1875 73.7953 34.1875C74.6236 34.1875 75.2693 33.8696 75.7297 33.229C76.1902 32.5909 76.4229 31.75 76.4229 30.704ZM78.6626 30.6214C78.6626 32.3056 78.2097 33.6394 77.2988 34.6154C76.483 35.4863 75.472 35.9192 74.2632 35.9192C72.9594 35.9192 72.0235 35.4487 71.4504 34.5128H71.4129V39.7305H69.2107V29.0523C69.2107 27.9938 69.1832 26.9077 69.1306 25.7916H71.065L71.1877 27.3631H71.2302C71.9609 26.1795 73.0746 25.5889 74.5686 25.5889C75.7372 25.5889 76.7107 26.0518 77.494 26.9753C78.2748 27.9012 78.6626 29.1149 78.6626 30.6214Z" fill="#302A25"/>
<path d="M91.4005 31.8454C91.4005 33.0116 90.9951 33.9625 90.1793 34.6983C89.2834 35.4991 88.0396 35.8995 86.4405 35.8995C84.9615 35.8995 83.7754 35.6142 82.877 35.0436L83.3875 33.2118C84.3559 33.7948 85.4145 34.0851 86.5706 34.0851C87.399 34.0851 88.0446 33.9 88.5076 33.5271C88.968 33.1517 89.1983 32.6512 89.1983 32.0256C89.1983 31.47 89.0106 30.9971 88.6302 30.6167C88.2498 30.2363 87.6167 29.8834 86.7333 29.5556C84.3284 28.6572 83.1272 27.3434 83.1272 25.6167C83.1272 24.488 83.5476 23.5621 84.391 22.8414C85.2318 22.1207 86.3529 21.7578 87.7518 21.7578C89.0031 21.7578 90.0416 21.978 90.8699 22.411L90.3194 24.2053C89.5461 23.7848 88.6702 23.5721 87.6918 23.5721C86.916 23.5721 86.3129 23.7623 85.88 24.1427C85.5146 24.483 85.3294 24.8985 85.3294 25.3864C85.3294 25.9295 85.5371 26.3774 85.96 26.7303C86.3254 27.0556 86.9911 27.4085 87.957 27.7913C89.1382 28.2668 90.0066 28.8224 90.5646 29.4605C91.1202 30.0987 91.4005 30.8944 91.4005 31.8454Z" fill="#302A25"/>
<path d="M98.6726 27.4428H96.2477V32.2501C96.2477 33.4738 96.6756 34.0844 97.534 34.0844C97.9244 34.0844 98.2522 34.0519 98.51 33.9843L98.57 35.6535C98.1396 35.8187 97.5665 35.8987 96.8608 35.8987C95.9925 35.8987 95.3118 35.6335 94.8213 35.1055C94.3333 34.5749 94.088 33.684 94.088 32.4353V27.4428H92.6416V25.7911H94.088V23.9793L96.2477 23.3262V25.7911H98.6726" fill="#302A25"/>
<path d="M107.334 30.734C107.334 29.8206 107.136 29.0398 106.741 28.3842C106.283 27.5934 105.622 27.198 104.766 27.198C103.883 27.198 103.21 27.5934 102.749 28.3842C102.354 29.0398 102.161 29.8356 102.161 30.7766C102.161 31.69 102.354 32.4707 102.749 33.1239C103.225 33.9147 103.89 34.3101 104.749 34.3101C105.587 34.3101 106.248 33.9097 106.723 33.1039C107.131 32.4382 107.334 31.6474 107.334 30.734ZM109.616 30.6639C109.616 32.1855 109.183 33.4342 108.312 34.4127C107.401 35.4187 106.193 35.9192 104.686 35.9192C103.23 35.9192 102.074 35.4362 101.21 34.4728C100.349 33.5093 99.9189 32.2931 99.9189 30.8266C99.9189 29.2901 100.362 28.0338 101.253 27.0578C102.141 26.0769 103.34 25.5889 104.846 25.5889C106.3 25.5889 107.471 26.0719 108.352 27.0353C109.196 27.9763 109.616 29.1825 109.616 30.6639Z" fill="#302A25"/>
<path d="M116.768 27.7285C116.551 27.6885 116.32 27.6684 116.075 27.6684C115.302 27.6684 114.701 27.9612 114.281 28.5443C113.915 29.0623 113.733 29.713 113.733 30.4988V35.6965H111.533L111.551 28.9122C111.551 27.7685 111.523 26.73 111.47 25.7916H113.387L113.467 27.6885H113.525C113.758 27.0378 114.126 26.5123 114.626 26.1194C115.117 25.7665 115.647 25.5889 116.218 25.5889C116.42 25.5889 116.606 25.6039 116.768 25.6289" fill="#302A25"/>
<path d="M124.509 29.705C124.524 29.0543 124.381 28.4888 124.083 28.0133C123.703 27.4027 123.115 27.0949 122.329 27.0949C121.611 27.0949 121.025 27.3952 120.577 27.9933C120.212 28.4688 119.992 29.0393 119.929 29.705H124.509ZM126.606 30.2756C126.606 30.671 126.581 31.0013 126.528 31.2741H119.929C119.952 32.2525 120.272 33.0008 120.885 33.5163C121.441 33.9793 122.161 34.207 123.045 34.207C124.021 34.207 124.911 34.0518 125.715 33.739L126.06 35.2681C125.122 35.6735 124.016 35.8812 122.737 35.8812C121.203 35.8812 119.997 35.4282 119.121 34.5223C118.247 33.6214 117.807 32.4077 117.807 30.8862C117.807 29.3922 118.212 28.1484 119.031 27.1574C119.884 26.0964 121.04 25.5684 122.492 25.5684C123.918 25.5684 125.002 26.0964 125.735 27.1574C126.318 27.9983 126.606 29.0393 126.606 30.2756Z" fill="#302A25"/>
</g>
</svg>
