
<svg width="139" height="48" viewBox="0 0 139 48" fill="none" xmlns="http://www.w3.org/2000/svg">
<mask id="mask0_1837_2391" style="mask-type:alpha" maskUnits="userSpaceOnUse" x="0" y="0" width="139" height="48">
<rect width="139" height="48" rx="16" fill="#1E2534"/>
</mask>
<g mask="url(#mask0_1837_2391)">
<rect x="0.5" y="0.5" width="138" height="47" rx="15.5" stroke="#302A25"/>
<path d="M71.7896 17.232C70.8844 17.232 70.1213 16.9153 69.5178 16.2918C68.9193 15.6858 68.5851 14.8504 68.6001 13.9975C68.6001 13.0873 68.9093 12.3167 69.5178 11.7058C70.1188 11.0823 70.8819 10.7656 71.7871 10.7656C72.6824 10.7656 73.4455 11.0823 74.0589 11.7058C74.6674 12.3367 74.9766 13.1073 74.9766 13.9975C74.9666 14.9103 74.6574 15.6808 74.0589 16.2893C73.4579 16.9177 72.6948 17.232 71.7896 17.232ZM44.8546 17.232C43.9693 17.232 43.2013 16.9202 42.5728 16.3043C41.9494 15.6908 41.6327 14.9153 41.6327 14C41.6327 13.0848 41.9494 12.3093 42.5728 11.6958C43.1888 11.0798 43.9569 10.7681 44.8546 10.7681C45.2935 10.7681 45.7199 10.8554 46.1289 11.0325C46.5304 11.2045 46.8571 11.4389 47.099 11.7257L47.1588 11.798L46.483 12.4614L46.4132 12.3791C46.0317 11.9252 45.5204 11.7033 44.8446 11.7033C44.2412 11.7033 43.715 11.9177 43.2811 12.3417C42.8447 12.7681 42.6227 13.3267 42.6227 14.0025C42.6227 14.6783 42.8447 15.2369 43.2811 15.6634C43.715 16.0873 44.2412 16.3018 44.8446 16.3018C45.488 16.3018 46.0292 16.0873 46.4506 15.6634C46.7 15.414 46.8546 15.0649 46.9095 14.6235H44.7424V13.6908H47.8396L47.8521 13.7756C47.8745 13.9327 47.897 14.0948 47.897 14.2444C47.897 15.1048 47.6376 15.8005 47.1239 16.3143C46.5404 16.9227 45.7773 17.232 44.8546 17.232ZM80.6674 17.0998H79.7123L76.7871 12.419L76.812 13.2619V17.0973H75.8569V10.9003H76.9467L76.9766 10.9477L79.7272 15.3566L79.7023 14.5162V10.9003H80.6674V17.0998ZM64.6126 17.0998H63.645V11.833H61.9667V10.9003H66.2884V11.833H64.6101V17.0998H64.6126ZM61.1787 17.0998H60.2136V10.9003H61.1787V17.0998ZM55.7548 17.0998H54.7897V11.833H53.1114V10.9003H57.4331V11.833H55.7548V17.0998ZM52.5005 17.0898H48.7997V10.9003H52.5005V11.833H49.7673V13.5337H52.2336V14.4564H49.7673V16.1571H52.5005V17.0898ZM70.226 15.6509C70.6574 16.0823 71.1811 16.2993 71.7896 16.2993C72.4155 16.2993 72.9268 16.0873 73.3532 15.6509C73.7771 15.227 73.9916 14.6709 73.9916 14C73.9916 13.3292 73.7771 12.7706 73.3557 12.3492C72.9243 11.9177 72.3981 11.7008 71.7921 11.7008C71.1662 11.7008 70.655 11.9128 70.231 12.3492C69.8071 12.7731 69.5926 13.3292 69.5926 14C69.5926 14.6709 69.8046 15.2295 70.226 15.6509Z" fill="#302A25"/>
<path fill-rule="evenodd" clip-rule="evenodd" d="M68.5105 25.7554C66.1539 25.7554 64.2436 27.5434 64.2436 30.0098C64.2436 32.4537 66.1663 34.2641 68.5105 34.2641C70.8671 34.2641 72.7773 32.4636 72.7773 30.0098C72.7773 27.5434 70.8671 25.7554 68.5105 25.7554ZM68.5105 32.5784C67.2212 32.5784 66.1115 31.511 66.1115 29.9998C66.1115 28.4661 67.2237 27.4213 68.5105 27.4213C69.7998 27.4213 70.9095 28.4661 70.9095 29.9998C70.912 31.521 69.7998 32.5784 68.5105 32.5784ZM59.2012 25.7554C56.8446 25.7554 54.9344 27.5434 54.9344 30.0098C54.9344 32.4537 56.8571 34.2641 59.2012 34.2641C61.5579 34.2641 63.4681 32.4636 63.4681 30.0098C63.4681 27.5434 61.5554 25.7554 59.2012 25.7554ZM59.2012 32.5784C57.912 32.5784 56.8022 31.511 56.8022 29.9998C56.8022 28.4661 57.9145 27.4213 59.2012 27.4213C60.4905 27.4213 61.6003 28.4661 61.6003 29.9998C61.6003 31.521 60.4905 32.5784 59.2012 32.5784ZM48.1239 27.0547V28.8552H52.4456C52.3135 29.8651 51.9793 30.6108 51.4681 31.122C50.8347 31.7554 49.8571 32.4437 48.1339 32.4437C45.478 32.4437 43.4007 30.2991 43.4007 27.6432C43.4007 24.9873 45.478 22.8427 48.1339 22.8427C49.5678 22.8427 50.6127 23.4088 51.3883 24.132L52.6651 22.8552C51.5878 21.8227 50.1539 21.0322 48.1439 21.0322C44.5005 21.0322 41.4431 23.9998 41.4431 27.6332C41.4431 31.2766 44.498 34.2342 48.1439 34.2342C50.1115 34.2342 51.5878 33.5908 52.7549 32.3789C53.9444 31.1893 54.3209 29.511 54.3209 28.1569C54.3209 27.7355 54.2885 27.3564 54.2212 27.0347H48.1214C48.1239 27.0322 48.1239 27.0547 48.1239 27.0547ZM93.4332 28.4562C93.0766 27.5011 91.9993 25.7454 89.7898 25.7454C87.6003 25.7454 85.7798 27.4686 85.7798 29.9998C85.7798 32.3888 87.5803 34.2542 90.0018 34.2542C91.9469 34.2542 93.0791 33.0646 93.5454 32.3664L92.1015 31.3988C91.6227 32.1095 90.9569 32.5759 90.0118 32.5759C89.0567 32.5759 88.3883 32.142 87.9444 31.2866L93.6327 28.93C93.6327 28.9325 93.4332 28.4562 93.4332 28.4562ZM87.6327 29.8776C87.5878 28.2342 88.9095 27.3988 89.8547 27.3988C90.6003 27.3988 91.2212 27.7654 91.4332 28.2991L87.6327 29.8776ZM83.0118 33.9998H84.8796V21.5011H83.0118V33.9998ZM79.9444 26.7006H79.8771C79.4556 26.1993 78.6551 25.7454 77.6327 25.7454C75.5105 25.7454 73.5554 27.6133 73.5554 30.0123C73.5554 32.4013 75.5005 34.2467 77.6327 34.2467C78.6427 34.2467 79.4556 33.7903 79.8771 33.2791H79.9444V33.8901C79.9444 35.5135 79.0766 36.3888 77.6776 36.3888C76.5329 36.3888 75.8222 35.5659 75.5329 34.8776L73.9095 35.5559C74.3758 36.6781 75.6202 38.0671 77.6751 38.0671C79.8646 38.0671 81.72 36.7779 81.72 33.6332V25.9998H79.9544V26.7006C79.9569 26.7006 79.9444 26.7006 79.9444 26.7006ZM77.7998 32.5784C76.5105 32.5784 75.4332 31.5011 75.4332 30.0123C75.4332 28.511 76.5105 27.4237 77.7998 27.4237C79.0766 27.4237 80.0666 28.5235 80.0666 30.0123C80.0791 31.5011 79.0791 32.5784 77.7998 32.5784ZM102.179 21.5011H97.7125V33.9998H99.5804V29.2666H102.181C104.249 29.2666 106.281 27.7679 106.281 25.3888C106.281 23.0098 104.256 21.5011 102.179 21.5011ZM102.234 27.521H99.5779V23.2317H102.234C103.633 23.2317 104.423 24.3863 104.423 25.3764C104.423 26.3564 103.623 27.521 102.234 27.521ZM113.767 25.733C112.411 25.733 111.012 26.334 110.433 27.6432L112.089 28.3315C112.446 27.6432 113.099 27.4088 113.79 27.4088C114.757 27.4088 115.735 27.9873 115.757 29.0198V29.1519C115.423 28.9624 114.69 28.6731 113.812 28.6731C112.024 28.6731 110.211 29.6507 110.211 31.4836C110.211 33.1619 111.678 34.2392 113.311 34.2392C114.565 34.2392 115.256 33.6731 115.688 33.0173H115.755V33.9848H117.555V29.1968C117.555 26.9674 115.9 25.733 113.767 25.733ZM113.533 32.5784C112.922 32.5784 112.067 32.2791 112.067 31.511C112.067 30.5434 113.134 30.1769 114.044 30.1769C114.867 30.1769 115.256 30.3539 115.745 30.5983C115.61 31.7205 114.663 32.5684 113.533 32.5784ZM124.124 25.9998L121.979 31.4213H121.912L119.69 25.9998H117.68L121.014 33.5784L119.114 37.7903H121.059L126.189 25.9998H124.124ZM107.311 33.9998H109.179V21.5011H107.311V33.9998Z" fill="#302A25"/>
<path fill-rule="evenodd" clip-rule="evenodd" d="M10.8122 11.5341C10.5229 11.8458 10.3558 12.3222 10.3558 12.9456V35.0578C10.3558 35.6812 10.5229 36.1575 10.8222 36.4568L10.8995 36.5241L23.2885 24.1351V23.8583L10.8895 11.4668L10.8122 11.5341Z" fill="#302A25"/>
<path fill-rule="evenodd" clip-rule="evenodd" d="M27.4106 28.2772L23.2784 24.1451V23.8558L27.4106 19.7236L27.5004 19.7785L32.3882 22.5566C33.7872 23.3446 33.7872 24.6463 32.3882 25.4443L27.5004 28.2224L27.4106 28.2772Z" fill="#CCB7B7"/>
<path fill-rule="evenodd" clip-rule="evenodd" d="M27.5007 28.2219L23.2787 24L10.8124 36.4663C11.2687 36.9551 12.0343 37.01 12.8897 36.5337L27.5007 28.2219Z" fill="#E3DBDB"/>
<path fill-rule="evenodd" clip-rule="evenodd" d="M27.5007 19.7784L12.8897 11.4792C12.0343 10.9904 11.2662 11.0577 10.8124 11.5465L23.2787 24.0004L27.5007 19.7784Z" fill="#E3DBDB"/>
</g>
</svg>
